<?xml version="1.0" encoding="UTF-8"?>
<svg version="1.1" xmlns="http://www.w3.org/2000/svg" width="627" height="627">
<path d="M0 0 C1.06092865 -0.00570007 2.1218573 -0.01140015 3.2149353 -0.01727295 C5.45545472 -0.02667163 7.69598765 -0.03323637 9.93652344 -0.03710938 C13.27825849 -0.0467093 16.61934904 -0.07773866 19.9609375 -0.109375 C38.95657191 -0.20310866 57.59586095 1.58785437 76.2109375 5.453125 C77.23098877 5.66219482 78.25104004 5.87126465 79.30200195 6.08666992 C119.16388577 14.55261268 158.45858734 30.47510925 191.7109375 54.203125 C192.40364746 54.69506348 193.09635742 55.18700195 193.81005859 55.69384766 C204.96169301 63.64722432 215.56556447 72.00259665 225.7109375 81.203125 C226.33403809 81.76451172 226.95713867 82.32589844 227.59912109 82.90429688 C239.80645466 93.9318907 239.80645466 93.9318907 245.0390625 100.2265625 C246.25612471 101.66542577 247.52421617 103.06158581 248.8203125 104.4296875 C296.53021495 154.79014008 327.61644677 230.2570359 327.9140625 299.4921875 C327.91976257 300.55311615 327.92546265 301.6140448 327.93133545 302.7071228 C327.94073413 304.94764222 327.94729887 307.18817515 327.95117188 309.42871094 C327.9607718 312.77044599 327.99180116 316.11153654 328.0234375 319.453125 C328.11717116 338.44875941 326.32620813 357.08804845 322.4609375 375.703125 C322.25186768 376.72317627 322.04279785 377.74322754 321.82739258 378.79418945 C313.36144982 418.65607327 297.43895325 457.95077484 273.7109375 491.203125 C273.21899902 491.89583496 272.72706055 492.58854492 272.22021484 493.30224609 C264.26683818 504.45388051 255.91146585 515.05775197 246.7109375 525.203125 C246.14955078 525.82622559 245.58816406 526.44932617 245.00976562 527.09130859 C233.9821718 539.29864216 233.9821718 539.29864216 227.6875 544.53125 C226.24863673 545.74831221 224.85247669 547.01640367 223.484375 548.3125 C173.12392242 596.02240245 97.6570266 627.10863427 28.421875 627.40625 C27.36094635 627.41195007 26.3000177 627.41765015 25.2069397 627.42352295 C22.96642028 627.43292163 20.72588735 627.43948637 18.48535156 627.44335938 C15.14361651 627.4529593 11.80252596 627.48398866 8.4609375 627.515625 C-10.53469691 627.60935866 -29.17398595 625.81839563 -47.7890625 621.953125 C-49.3191394 621.63952026 -49.3191394 621.63952026 -50.88012695 621.31958008 C-90.74201077 612.85363732 -130.03671234 596.93114075 -163.2890625 573.203125 C-163.98177246 572.71118652 -164.67448242 572.21924805 -165.38818359 571.71240234 C-176.53981801 563.75902568 -187.14368947 555.40365335 -197.2890625 546.203125 C-198.22371338 545.36104492 -198.22371338 545.36104492 -199.17724609 544.50195312 C-211.38457966 533.4743593 -211.38457966 533.4743593 -216.6171875 527.1796875 C-217.83424971 525.74082423 -219.10234117 524.34466419 -220.3984375 522.9765625 C-268.10833995 472.61610992 -299.19457177 397.1492141 -299.4921875 327.9140625 C-299.49788757 326.85313385 -299.50358765 325.7922052 -299.50946045 324.6991272 C-299.51885913 322.45860778 -299.52542387 320.21807485 -299.52929688 317.97753906 C-299.5388968 314.63580401 -299.56992616 311.29471346 -299.6015625 307.953125 C-299.69529616 288.95749059 -297.90433313 270.31820155 -294.0390625 251.703125 C-293.82999268 250.68307373 -293.62092285 249.66302246 -293.40551758 248.61206055 C-284.93957482 208.75017673 -269.01707825 169.45547516 -245.2890625 136.203125 C-244.79712402 135.51041504 -244.30518555 134.81770508 -243.79833984 134.10400391 C-235.84496318 122.95236949 -227.48959085 112.34849803 -218.2890625 102.203125 C-217.72767578 101.58002441 -217.16628906 100.95692383 -216.58789062 100.31494141 C-205.5602968 88.10760784 -205.5602968 88.10760784 -199.265625 82.875 C-197.82676173 81.65793779 -196.43060169 80.38984633 -195.0625 79.09375 C-144.70204742 31.38384755 -69.2351516 0.29761573 0 0 Z " fill="#FEFEFE" transform="translate(299.2890625,-0.203125)"/>
<path d="M0 0 C1.06092865 -0.00570007 2.1218573 -0.01140015 3.2149353 -0.01727295 C5.45545472 -0.02667163 7.69598765 -0.03323637 9.93652344 -0.03710938 C13.27825849 -0.0467093 16.61934904 -0.07773866 19.9609375 -0.109375 C38.95657191 -0.20310866 57.59586095 1.58785437 76.2109375 5.453125 C77.23098877 5.66219482 78.25104004 5.87126465 79.30200195 6.08666992 C119.16388577 14.55261268 158.45858734 30.47510925 191.7109375 54.203125 C192.40364746 54.69506348 193.09635742 55.18700195 193.81005859 55.69384766 C204.96169301 63.64722432 215.56556447 72.00259665 225.7109375 81.203125 C226.33403809 81.76451172 226.95713867 82.32589844 227.59912109 82.90429688 C239.80645466 93.9318907 239.80645466 93.9318907 245.0390625 100.2265625 C246.25612471 101.66542577 247.52421617 103.06158581 248.8203125 104.4296875 C296.53021495 154.79014008 327.61644677 230.2570359 327.9140625 299.4921875 C327.91976257 300.55311615 327.92546265 301.6140448 327.93133545 302.7071228 C327.94073413 304.94764222 327.94729887 307.18817515 327.95117188 309.42871094 C327.9607718 312.77044599 327.99180116 316.11153654 328.0234375 319.453125 C328.11717116 338.44875941 326.32620813 357.08804845 322.4609375 375.703125 C322.25186768 376.72317627 322.04279785 377.74322754 321.82739258 378.79418945 C313.36144982 418.65607327 297.43895325 457.95077484 273.7109375 491.203125 C273.21899902 491.89583496 272.72706055 492.58854492 272.22021484 493.30224609 C264.26683818 504.45388051 255.91146585 515.05775197 246.7109375 525.203125 C246.14955078 525.82622559 245.58816406 526.44932617 245.00976562 527.09130859 C237.73881796 535.14010736 230.44882736 542.72140801 221.7109375 549.203125 C221.80375 547.92308594 221.8965625 546.64304687 221.9921875 545.32421875 C221.97405038 539.50106859 219.8563551 535.3536049 217.2109375 530.265625 C216.20630818 528.25231135 215.20384644 526.23791517 214.203125 524.22265625 C213.64979492 523.11873535 213.09646484 522.01481445 212.52636719 520.87744141 C209.37396486 514.53900823 206.39608045 508.11579844 203.39233398 501.70602417 C202.02719377 498.79468993 200.65644505 495.88601132 199.28570557 492.97731018 C198.3367713 490.95790129 197.39510997 488.93522096 196.45410156 486.91210938 C195.3528952 484.54975338 194.21877892 482.21764777 193.05371094 479.88476562 C192.57708008 478.91216797 192.10044922 477.93957031 191.609375 476.9375 C191.19091309 476.10959961 190.77245117 475.28169922 190.34130859 474.42871094 C189.7109375 472.203125 189.7109375 472.203125 190.47192383 470.02612305 C192.05521696 467.69657628 193.87902813 466.09416392 196.0234375 464.265625 C207.11515065 454.48446009 216.9855932 444.15155163 225.7109375 432.203125 C226.33863037 431.35790283 226.33863037 431.35790283 226.97900391 430.49560547 C239.17714227 413.89985499 247.24669953 394.96936933 252.7109375 375.203125 C253.02546875 374.12417969 253.34 373.04523438 253.6640625 371.93359375 C257.90867829 357.05663153 258.89788647 342.45558022 258.89624023 327.05834961 C258.89843097 324.77243523 258.91667597 322.4870018 258.93554688 320.20117188 C258.97032403 311.34275359 258.39495174 302.93029379 256.7109375 294.203125 C256.45340698 292.79027222 256.45340698 292.79027222 256.19067383 291.34887695 C253.63766225 277.7777304 250.08129366 264.92798663 244.7109375 252.203125 C244.40816895 251.48463379 244.10540039 250.76614258 243.79345703 250.02587891 C234.19853836 227.69191523 220.4044409 208.70977899 203.7109375 191.203125 C202.87304688 190.30078125 202.03515625 189.3984375 201.171875 188.46875 C191.93627052 178.8146136 181.38173063 170.12813949 169.58081055 163.80761719 C162.16687197 159.80980419 158.65351498 155.86936043 154.8515625 148.21484375 C141.70566391 122.25626765 117.07648445 98.79357427 93.7109375 82.203125 C93.10636719 81.76452148 92.50179688 81.32591797 91.87890625 80.87402344 C72.64522909 66.98184975 49.96146142 55.28552596 26.7109375 50.203125 C23.9359025 49.53228321 21.16734232 48.83627059 18.3984375 48.140625 C17.74029053 47.97796143 17.08214355 47.81529785 16.40405273 47.64770508 C13.32827948 46.88371893 10.28941141 46.07437834 7.2578125 45.1484375 C3.25644026 44.08199248 -0.61582392 43.55650438 -4.7265625 43.140625 C-5.89747437 43.0171167 -5.89747437 43.0171167 -7.09204102 42.89111328 C-22.50769114 41.31761084 -37.70712226 40.72404183 -53.1640625 42.078125 C-54.21907959 42.16908447 -55.27409668 42.26004395 -56.36108398 42.35375977 C-63.72925283 43.01223056 -71.01282787 43.84896338 -78.2890625 45.203125 C-79.44792969 45.40679687 -80.60679687 45.61046875 -81.80078125 45.8203125 C-88.8306005 47.12784419 -95.67572915 48.77174618 -102.5390625 50.765625 C-103.63009277 51.08043823 -103.63009277 51.08043823 -104.74316406 51.40161133 C-107.97791168 52.37119283 -110.45750048 53.31541699 -113.2890625 55.203125 C-114.81707411 55.70510715 -116.36124787 56.15911153 -117.9140625 56.578125 C-133.4021544 61.11122507 -148.23986579 69.8603817 -161.2890625 79.203125 C-161.99820801 79.70473145 -162.70735352 80.20633789 -163.43798828 80.72314453 C-174.05366813 88.25734982 -183.99798589 96.08547326 -193.2890625 105.203125 C-194.20300781 106.07839844 -195.11695313 106.95367187 -196.05859375 107.85546875 C-200.57973534 112.25460053 -204.71082726 116.73719161 -208.47338867 121.80224609 C-210.28639242 124.19959434 -212.17025491 126.52212944 -214.07421875 128.84765625 C-235.41212105 155.48820844 -250.00512051 188.70451692 -256.2890625 222.203125 C-256.50900879 223.26225098 -256.50900879 223.26225098 -256.73339844 224.34277344 C-259.32633175 237.06208717 -259.554628 249.7108343 -259.5390625 262.640625 C-259.53803528 263.86076797 -259.53803528 263.86076797 -259.5369873 265.1055603 C-259.49763464 279.29344735 -259.07292849 293.17522129 -255.9765625 307.078125 C-255.74928467 308.11839844 -255.52200684 309.15867187 -255.2878418 310.23046875 C-254.83325748 312.29504583 -254.37388191 314.35857516 -253.90917969 316.42089844 C-253.38706099 318.7634436 -252.89650353 321.10848084 -252.421875 323.4609375 C-241.15511588 374.85881956 -203.80010777 423.30726344 -160.22265625 451.54199219 C-157.45152977 453.28444293 -154.66173346 454.96350412 -151.8203125 456.58984375 C-149.25775273 458.22308014 -147.39632251 460.03022261 -145.2890625 462.203125 C-151.6994472 476.41231873 -158.34619372 490.46639406 -165.3515625 504.390625 C-166.0333384 505.74980996 -166.7148984 507.10910325 -167.39624023 508.46850586 C-172.59879936 518.84393548 -172.59879936 518.84393548 -175.08984375 523.74902344 C-176.69362754 526.91327043 -178.27518537 530.0876591 -179.8515625 533.265625 C-180.55841187 534.63787231 -180.55841187 534.63787231 -181.27954102 536.0378418 C-183.86496062 541.30810101 -184.89894256 544.47910702 -183.2890625 550.203125 C-182.37239583 552.28645833 -182.37239583 552.28645833 -180.2890625 553.203125 C-172.51551712 554.16811684 -167.43278227 551.20256047 -160.7265625 547.515625 C-159.62739502 546.92765137 -158.52822754 546.33967773 -157.39575195 545.73388672 C-149.25644104 541.3539204 -141.20322679 536.81870263 -133.1809082 532.22851562 C-125.5014742 527.84439298 -117.72274508 523.66271348 -109.9140625 519.515625 C-102.37127512 515.50776666 -94.87212457 511.461459 -87.5390625 507.078125 C-86.55885132 506.50940674 -86.55885132 506.50940674 -85.55883789 505.92919922 C-81.65025194 503.65675448 -77.8756747 501.25799182 -74.12109375 498.73828125 C-57.54307588 488.11384566 -40.63998203 485.4101081 -21.2890625 488.203125 C-14.45090898 490.06125274 -8.55652526 493.31826988 -2.51513672 496.94335938 C17.60152263 508.32765003 44.96907553 511.63156618 67.5234375 511.453125 C68.22503998 511.45002319 68.92664246 511.44692139 69.64950562 511.44372559 C85.34828381 511.3624692 100.04795183 509.55604285 115.37109375 506.10546875 C116.10231445 505.9561792 116.83353516 505.80688965 117.58691406 505.65307617 C119.59699624 505.22726221 121.58705103 504.70991012 123.57421875 504.1875 C129.48645912 503.54690428 134.09285451 507.44140454 138.8359375 510.515625 C140.49051507 511.54850048 142.14512977 512.58131902 143.8012085 513.61178589 C145.56305179 514.71125194 147.31920677 515.8194348 149.07519531 516.92822266 C154.5987362 520.40126502 160.20971711 523.72922644 165.81314087 527.07116699 C168.96997829 528.9540913 172.12424973 530.84128352 175.27734375 532.73046875 C175.8958873 533.10096344 176.51443085 533.47145813 177.15171814 533.85317993 C180.83473979 536.06368621 184.50234584 538.29744263 188.15756226 540.55361938 C189.89131069 541.62326446 191.62782054 542.68827423 193.36523438 543.75195312 C195.49361776 545.05734472 197.6164116 546.3719115 199.73242188 547.69726562 C204.85203482 550.82456817 208.69611633 552.87475261 214.7109375 553.203125 C215.3709375 553.533125 216.0309375 553.863125 216.7109375 554.203125 C200.61201381 567.45698028 183.7598115 578.76365321 165.7109375 589.203125 C165.07397949 589.5753418 164.43702148 589.94755859 163.78076172 590.33105469 C124.03752013 613.35943698 74.4479238 627.20840142 28.421875 627.40625 C27.36094635 627.41195007 26.3000177 627.41765015 25.2069397 627.42352295 C22.96642028 627.43292163 20.72588735 627.43948637 18.48535156 627.44335938 C15.14361651 627.4529593 11.80252596 627.48398866 8.4609375 627.515625 C-10.53469691 627.60935866 -29.17398595 625.81839563 -47.7890625 621.953125 C-49.3191394 621.63952026 -49.3191394 621.63952026 -50.88012695 621.31958008 C-90.74201077 612.85363732 -130.03671234 596.93114075 -163.2890625 573.203125 C-163.98177246 572.71118652 -164.67448242 572.21924805 -165.38818359 571.71240234 C-176.53981801 563.75902568 -187.14368947 555.40365335 -197.2890625 546.203125 C-198.22371338 545.36104492 -198.22371338 545.36104492 -199.17724609 544.50195312 C-211.38457966 533.4743593 -211.38457966 533.4743593 -216.6171875 527.1796875 C-217.83424971 525.74082423 -219.10234117 524.34466419 -220.3984375 522.9765625 C-268.10833995 472.61610992 -299.19457177 397.1492141 -299.4921875 327.9140625 C-299.49788757 326.85313385 -299.50358765 325.7922052 -299.50946045 324.6991272 C-299.51885913 322.45860778 -299.52542387 320.21807485 -299.52929688 317.97753906 C-299.5388968 314.63580401 -299.56992616 311.29471346 -299.6015625 307.953125 C-299.69529616 288.95749059 -297.90433313 270.31820155 -294.0390625 251.703125 C-293.82999268 250.68307373 -293.62092285 249.66302246 -293.40551758 248.61206055 C-284.93957482 208.75017673 -269.01707825 169.45547516 -245.2890625 136.203125 C-244.79712402 135.51041504 -244.30518555 134.81770508 -243.79833984 134.10400391 C-235.84496318 122.95236949 -227.48959085 112.34849803 -218.2890625 102.203125 C-217.72767578 101.58002441 -217.16628906 100.95692383 -216.58789062 100.31494141 C-205.5602968 88.10760784 -205.5602968 88.10760784 -199.265625 82.875 C-197.82676173 81.65793779 -196.43060169 80.38984633 -195.0625 79.09375 C-144.70204742 31.38384755 -69.2351516 0.29761573 0 0 Z " fill="#EFEFEE" transform="translate(299.2890625,-0.203125)"/>
<path d="M0 0 C1.43279297 0.13051758 1.43279297 0.13051758 2.89453125 0.26367188 C4.81113541 0.43873382 6.72740536 0.61749606 8.64331055 0.80004883 C10.56013923 0.97615265 12.47839972 1.13726692 14.39770508 1.28393555 C19.89240062 1.71699406 24.88829876 2.48185045 30.1875 4 C31.48165257 4.36370233 32.77592211 4.72698871 34.0703125 5.08984375 C35.20210938 5.41082031 36.33390625 5.73179688 37.5 6.0625 C38.85211458 6.40406205 40.2058664 6.73935337 41.5625 7.0625 C42.87590238 7.39225983 44.18828261 7.72610015 45.5 8.0625 C46.98113281 8.43955078 46.98113281 8.43955078 48.4921875 8.82421875 C73.15261519 15.4506602 96.28145468 27.56999679 116.5 43.0625 C117.46164062 43.79339844 118.42328125 44.52429688 119.4140625 45.27734375 C125.35913892 49.92481061 131.00428017 54.89408759 136.5 60.0625 C137.05848633 60.5869873 137.61697266 61.11147461 138.19238281 61.65185547 C148.09805198 71.03266804 156.49646162 81.0332337 164.5 92.0625 C165.43924453 93.33006451 166.3793172 94.5970159 167.3203125 95.86328125 C171.1337131 101.05104401 174.57056588 106.04436394 177.25 111.9375 C180.32596656 117.87281577 185.08956066 120.1108375 190.77734375 123.046875 C201.60833713 128.69978257 210.74189429 137.67506215 219.5 146.0625 C219.99886719 146.53413574 220.49773437 147.00577148 221.01171875 147.49169922 C252.84874132 177.70208728 275.58588651 221.91443949 278.5 266.0625 C278.62304743 271.05457287 278.64399271 276.04251671 278.63037109 281.03588867 C278.6250361 283.35927937 278.6303284 285.68247474 278.63671875 288.00585938 C278.6453612 300.69348827 277.93872264 312.69166355 274.875 325.0625 C274.4730542 326.69034424 274.4730542 326.69034424 274.06298828 328.35107422 C267.93412236 352.51560806 258.24486049 375.50888278 242.5 395.0625 C242.06284668 395.61099609 241.62569336 396.15949219 241.17529297 396.72460938 C231.91840867 408.22047569 221.48842581 420.39040887 209.5 429.0625 C212.0369197 437.73030898 216.01917418 445.61880864 220 453.6875 C220.71892635 455.1555992 221.43718227 456.62402688 222.15478516 458.09277344 C223.58997775 461.02986664 225.02719022 463.96595637 226.46582031 466.90136719 C229.29957745 472.69038052 232.09285541 478.49850664 234.875 484.3125 C235.32037109 485.23885254 235.76574219 486.16520508 236.22460938 487.11962891 C236.63259766 487.97218262 237.04058594 488.82473633 237.4609375 489.703125 C237.80946777 490.43047852 238.15799805 491.15783203 238.51708984 491.90722656 C241.2298824 497.85569469 242.65691797 502.59174608 240.5 509.0625 C234.97670091 513.03927535 234.97670091 513.03927535 230.51953125 513.109375 C224.52671343 512.02813115 219.41151814 508.19702806 214.3125 505.0625 C213.12449241 504.34384396 211.93583996 503.62625299 210.74658203 502.90966797 C207.62165898 501.02287187 204.50547122 499.1221218 201.39129639 497.21765137 C198.29768934 495.328162 195.1974944 493.44955538 192.09765625 491.5703125 C188.50554084 489.39178342 184.91412483 487.21214757 181.32641602 485.02636719 C174.19557101 480.68344027 167.04060827 476.38718878 159.82177734 472.19189453 C159.22574707 471.84497559 158.6297168 471.49805664 158.015625 471.140625 C157.15227539 470.6465918 157.15227539 470.6465918 156.27148438 470.14257812 C154.5 469.0625 154.5 469.0625 152.55664062 467.65429688 C149.00720714 465.14658245 147.22522314 464.05642483 142.76953125 464.09375 C141.34044085 464.38939983 139.91757394 464.71581238 138.5 465.0625 C136.54602903 465.45022245 134.59155926 465.83543574 132.63671875 466.21875 C129.41036574 466.88654383 126.18600008 467.56281797 122.96289062 468.24609375 C100.25497753 472.92899468 74.1703871 473.41169246 51.5 468.0625 C50.21488525 467.76448486 50.21488525 467.76448486 48.90380859 467.46044922 C34.64891757 464.06400454 19.57242984 459.91077139 6.81396484 452.50292969 C-1.58451836 447.73012968 -9.16852691 446.97245173 -18.625 447.3125 C-19.73516983 447.34263687 -19.73516983 447.34263687 -20.86776733 447.37338257 C-35.94842928 447.90671195 -46.98470419 452.95513188 -59.60693359 461.19335938 C-64.00329391 464.03374204 -68.56292957 466.5632087 -73.125 469.125 C-74.82220159 470.10184541 -76.51881391 471.07971533 -78.21484375 472.05859375 C-84.99975399 475.94245833 -91.88441283 479.64021712 -98.76782227 483.34570312 C-104.72853986 486.55557965 -110.65914662 489.81098973 -116.5625 493.125 C-124.55168743 497.60333929 -132.66058271 501.84128555 -140.79907227 506.04125977 C-142.19210571 506.76140259 -142.19210571 506.76140259 -143.61328125 507.49609375 C-144.43610596 507.91947021 -145.25893066 508.34284668 -146.10668945 508.77905273 C-147.82423793 509.70011285 -149.51166504 510.67819179 -151.17651367 511.69140625 C-154.64542557 513.73841783 -157.5970154 514.0205767 -161.5 513.0625 C-164.5625 510.5 -164.5625 510.5 -166.5 507.0625 C-166.37298405 500.35497703 -163.32419457 494.99737446 -160.35546875 489.1015625 C-159.83044266 488.03876068 -159.30541656 486.97595886 -158.76448059 485.88095093 C-157.08135834 482.47847784 -155.38493442 479.08285209 -153.6875 475.6875 C-151.49056104 471.26447207 -149.29835858 466.83909908 -147.10546875 462.4140625 C-146.5629245 461.32087708 -146.02038025 460.22769165 -145.46139526 459.10137939 C-141.51284929 451.13670217 -137.60386229 443.1537196 -133.73828125 435.1484375 C-133.22533005 434.09258453 -132.71237885 433.03673157 -132.18388367 431.94888306 C-131.71368301 430.9710788 -131.24348236 429.99327454 -130.7590332 428.98583984 C-130.34547073 428.12888519 -129.93190826 427.27193054 -129.5058136 426.38900757 C-128.59382154 424.27951489 -127.97557967 422.305521 -127.5 420.0625 C-128.45777344 419.49144531 -129.41554688 418.92039062 -130.40234375 418.33203125 C-144.78108255 409.62776553 -158.38973887 399.75631474 -170.5 388.0625 C-171.17788574 387.41571289 -171.85577148 386.76892578 -172.55419922 386.10253906 C-205.63567123 354.40846703 -227.86535329 314.97368858 -237.5 270.0625 C-237.64856445 269.37043457 -237.79712891 268.67836914 -237.95019531 267.96533203 C-241.19882577 252.53250407 -241.73676442 237.22133825 -241.75 221.5 C-241.75100708 220.66344879 -241.75201416 219.82689758 -241.75305176 218.96499634 C-241.74260397 206.09870331 -241.12307657 193.69362257 -238.5 181.0625 C-238.37141602 180.37704102 -238.24283203 179.69158203 -238.11035156 178.98535156 C-234.19323355 158.16382605 -226.31347204 137.77937792 -216.5 119.0625 C-216.17177246 118.4348877 -215.84354492 117.80727539 -215.50537109 117.16064453 C-207.56221382 102.19720314 -197.66929523 88.74687313 -186.5 76.0625 C-185.90960938 75.36125 -185.31921875 74.66 -184.7109375 73.9375 C-174.28019882 61.60559221 -162.55754124 51.49540431 -149.5 42.0625 C-148.90123047 41.62921387 -148.30246094 41.19592773 -147.68554688 40.74951172 C-133.8309786 30.79601447 -119.45334598 21.63116604 -103.25390625 16.0546875 C-100.41627162 15.03233403 -97.69482537 13.84626378 -94.9375 12.625 C-65.87118495 0.37266227 -31.19160202 -2.96762205 0 0 Z M-69.5 38.0625 C-70.44182129 38.31789551 -71.38364258 38.57329102 -72.35400391 38.83642578 C-79.88280754 40.88193898 -87.21275459 43.27878825 -94.5 46.0625 C-94.5 46.7225 -94.5 47.3825 -94.5 48.0625 C-95.345625 48.31902344 -96.19125 48.57554688 -97.0625 48.83984375 C-100.72663673 50.14311056 -104.0880338 51.78227693 -107.5 53.625 C-108.46643433 54.14247803 -108.46643433 54.14247803 -109.45239258 54.67041016 C-115.35326978 57.88279855 -120.97529994 61.47231781 -126.57421875 65.1796875 C-129.5 67.0625 -129.5 67.0625 -131.58203125 68.0078125 C-134.39343469 69.5537981 -136.2715425 71.75774724 -138.5 74.0625 C-139.72927551 75.23202613 -140.96549152 76.39428277 -142.20703125 77.55078125 C-142.8719458 78.17025635 -143.53686035 78.78973145 -144.22192383 79.42797852 C-144.91181396 80.07049561 -145.6017041 80.7130127 -146.3125 81.375 C-148.4364814 83.36615791 -150.55851225 85.35936893 -152.6796875 87.35351562 C-154.09517158 88.6824304 -155.5153956 90.00629719 -156.9375 91.328125 C-167.18163202 101.14541819 -175.11172554 113.033059 -182.5 125.0625 C-183.06589844 125.97 -183.63179687 126.8775 -184.21484375 127.8125 C-189.78259986 136.87958374 -194.13283043 146.1160991 -197.5625 156.1875 C-197.90756592 157.19377441 -198.25263184 158.20004883 -198.6081543 159.23681641 C-201.37578899 167.43959087 -203.6706246 175.6024813 -205.5 184.0625 C-205.89771606 185.89772217 -205.89771606 185.89772217 -206.3034668 187.77001953 C-208.65026857 199.37587285 -209.06001034 210.74629844 -209 222.5625 C-208.99757294 223.5304953 -208.99514587 224.4984906 -208.99264526 225.49581909 C-208.9178924 240.8947502 -207.92878634 255.22347799 -203.5 270.0625 C-203.01732666 271.71306396 -203.01732666 271.71306396 -202.52490234 273.39697266 C-193.54904256 303.45498276 -179.90194072 329.79177421 -158.5078125 352.84375 C-157.10044262 354.39897586 -155.75132061 356.00797512 -154.44921875 357.65234375 C-151.51530989 361.28004268 -148.08198821 364.08836434 -144.5 367.0625 C-143.97470703 367.50013672 -143.44941406 367.93777344 -142.90820312 368.38867188 C-130.20768355 378.91767404 -117.23513657 387.8040873 -102.625 395.5 C-101.18060547 396.26280273 -101.18060547 396.26280273 -99.70703125 397.04101562 C-94.07412437 399.94317028 -88.56573317 402.22534262 -82.5 404.0625 C-84.61324083 410.10623111 -87.24792287 415.57487992 -90.3125 421.1875 C-94.50364949 428.98824825 -98.20189781 436.84405837 -101.5 445.0625 C-97.04319605 443.69266347 -93.04478373 441.93109089 -88.90625 439.7890625 C-87.9776416 439.30873062 -87.9776416 439.30873062 -87.03027344 438.81869507 C-85.70653037 438.13315874 -84.38371776 437.44582321 -83.06176758 436.75683594 C-80.96569539 435.66970791 -78.8617346 434.59924851 -76.75585938 433.53125 C-70.61052783 430.39418546 -64.61444748 427.28111631 -58.9375 423.3359375 C-43.37977231 412.79801146 -28.30117163 414.24788624 -10.24385071 414.90637207 C-0.74777655 415.21934455 8.23596774 414.09139963 17.5 412.0625 C18.44262695 411.86382324 19.38525391 411.66514648 20.35644531 411.46044922 C56.44272512 403.687751 89.05196657 386.9347417 115.5 361.0625 C116.41910156 360.19367188 117.33820313 359.32484375 118.28515625 358.4296875 C129.48146366 347.62706179 138.48109804 335.35239358 146.5 322.0625 C146.87366699 321.45212891 147.24733398 320.84175781 147.63232422 320.21289062 C166.03276997 289.92473685 173.7048064 256.24052688 173.8125 221.125 C173.81635712 220.34089752 173.82021423 219.55679504 173.82418823 218.74893188 C173.95102718 166.40832695 150.69989434 119.43747912 114.2109375 82.76171875 C95.25177331 64.97494104 73.56551669 52.46648633 49.5 43.0625 C48.85401855 42.80525146 48.20803711 42.54800293 47.54248047 42.28295898 C34.12298538 37.06464308 19.81337855 33.52737105 5.5 32.0625 C4.21996094 31.89363281 2.93992187 31.72476563 1.62109375 31.55078125 C-22.97778098 28.87123803 -45.7968898 31.41793356 -69.5 38.0625 Z " fill="#23323B" transform="translate(280.5,40.9375)"/>
<path d="M0 0 C0.69973731 -0.00367669 1.39947463 -0.00735338 2.1204161 -0.01114148 C4.45869782 -0.02213074 6.79693503 -0.02601392 9.13523865 -0.02983093 C10.81419515 -0.03609883 12.49315027 -0.04274592 14.17210388 -0.04974365 C19.67730247 -0.07073526 25.18250121 -0.08113661 30.68772888 -0.09111023 C32.58367871 -0.09515863 34.47962839 -0.09927558 36.37557793 -0.10346031 C45.27734692 -0.12249562 54.17910768 -0.13673411 63.0808931 -0.14507228 C73.36034197 -0.15486021 83.6395764 -0.18122712 93.91894966 -0.22157317 C101.86469666 -0.25169211 109.810382 -0.26653685 117.756185 -0.26985329 C122.50262887 -0.27220722 127.24884319 -0.28121305 131.99522591 -0.30631447 C136.45633366 -0.32952857 140.91705957 -0.33385549 145.37821198 -0.32355309 C147.01651972 -0.3230561 148.65484587 -0.32942426 150.29309654 -0.34310913 C152.52740253 -0.36073153 154.76032339 -0.35377144 156.99462891 -0.34057617 C158.87087621 -0.3441587 158.87087621 -0.3441587 160.7850275 -0.34781361 C163.93382263 0.14717102 163.93382263 0.14717102 166.33309841 1.93449116 C168.29344588 4.64427797 168.55021617 6.83052995 168.36985779 10.14912415 C167.61484256 13.60883557 165.59125184 15.45142294 163.12132263 17.89717102 C162.10387467 18.93311804 161.08696232 19.96959132 160.07054138 21.00654602 C159.54766541 21.52668274 159.02478943 22.04681946 158.48606873 22.5827179 C156.05577246 25.03212628 153.74984051 27.59029399 151.43382263 30.14717102 C150.5230445 31.14258548 149.61158311 32.1373752 148.69944763 33.13154602 C148.24634216 33.62590149 147.79323669 34.12025696 147.32640076 34.6295929 C145.90023338 36.1837753 144.47194248 37.73598298 143.04319763 39.28779602 C137.26358376 45.56208754 137.26358376 45.56208754 131.62132263 51.95967102 C127.60894356 56.59082663 123.39249129 61.03124541 119.20384216 65.50215149 C113.26781201 71.84395567 107.42284499 78.25889759 101.74632263 84.83467102 C97.6401881 89.55624492 93.33210252 94.08952458 89.05271912 98.65327454 C85.55733751 102.38743338 82.12505018 106.15635955 78.79319763 110.03779602 C75.58244373 113.68024792 72.2532411 117.21590975 68.93138123 120.7570343 C66.10800615 123.71550065 66.10800615 123.71550065 63.93382263 127.14717102 C65.04193298 127.11051331 66.15004333 127.07385559 67.29173279 127.03608704 C71.46986568 126.9077601 75.6478315 126.82844843 79.82737732 126.76264954 C81.62357531 126.72781087 83.41958037 126.68031981 85.21507263 126.61909485 C97.37270285 126.21542353 106.75936616 126.90378747 116.93382263 134.14717102 C125.24899867 142.46748411 128.31257603 151.25625914 128.38475037 162.7936554 C128.16068132 172.03989052 124.3918632 179.14552205 117.80882263 185.58467102 C107.23886629 193.80137233 96.73185655 194.87593083 83.84593201 194.7624054 C82.15608667 194.7659134 80.46624467 194.7715796 78.77641296 194.77922058 C74.22305809 194.79337196 69.67031403 194.776508 65.11701775 194.75293541 C60.34099002 194.73272686 55.56498516 194.73871069 50.78892517 194.74104309 C42.77983091 194.74098967 34.77097378 194.72131249 26.76194763 194.68916321 C17.50268831 194.6521761 8.24373815 194.64350299 -1.01558542 194.65046072 C-9.93664121 194.65676156 -18.85759108 194.64602568 -27.77862549 194.62649536 C-31.57121286 194.61832168 -35.36374611 194.61561169 -39.15634155 194.6171875 C-43.61509145 194.61806539 -48.07354675 194.60387641 -52.53221893 194.57796097 C-54.16889264 194.57079213 -55.80559767 194.56871899 -57.44228363 194.5720787 C-59.67388457 194.57578648 -61.90462222 194.56107235 -64.13612366 194.5415802 C-65.38523781 194.53785149 -66.63435196 194.53412277 -67.92131805 194.53028107 C-71.32445103 194.11570785 -72.69541053 193.58292073 -75.06617737 191.14717102 C-76.33595096 187.76110812 -76.74674435 186.5670201 -76.06617737 183.14717102 C-73.56661434 179.04712248 -70.33783209 175.6360357 -67.06617737 172.14717102 C-66.10254253 171.09115086 -65.14032866 170.03383249 -64.17945862 168.97529602 C-61.66678611 166.22095673 -59.12731213 163.49281802 -56.58033752 160.7702179 C-54.1645292 158.18068327 -51.77061549 155.57124252 -49.37867737 152.95967102 C-48.92669983 152.46636292 -48.47472229 151.97305481 -48.00904846 151.46479797 C-41.8903138 144.77860898 -35.83127838 138.04413885 -29.87867737 131.20967102 C-27.0322695 127.97065517 -24.13522706 124.77753246 -21.24586487 121.57685852 C-19.37472643 119.49110922 -17.52692906 117.38899474 -15.69117737 115.27217102 C-13.21572622 112.42425616 -10.68047031 109.6395467 -8.11549377 106.87202454 C-4.03287345 102.46539784 -0.08571754 98.01764925 3.68382263 93.33467102 C6.69274817 89.59760691 9.80128527 86.16025116 13.24632263 82.82685852 C17.283183 78.80868732 20.90272767 74.3905247 24.54466248 70.01655579 C25.72729675 68.59621033 25.72729675 68.59621033 26.93382263 67.14717102 C25.90088074 67.13782532 24.86793884 67.12847961 23.80369568 67.11885071 C19.92111732 67.07856559 16.03929974 67.0127066 12.1572113 66.93965149 C10.48641332 66.91166277 8.81548835 66.8903399 7.14451599 66.87617493 C-6.82900477 66.75070183 -18.64407955 65.48538878 -29.06617737 55.14717102 C-36.05950731 46.30719161 -36.94992057 37.17674523 -36.06617737 26.14717102 C-34.38191369 17.90671316 -29.3733592 11.5451233 -23.06617737 6.14717102 C-15.55406698 1.66662365 -8.68892132 0.02967686 0 0 Z " fill="#1B2A36" transform="translate(217.06617736816406,179.8528289794922)"/>
<path d="M0 0 C0.71897461 0.13390137 1.43794922 0.26780273 2.17871094 0.40576172 C21.35510285 4.09352939 39.84204966 10.75332157 57 20 C58.62289381 20.75454667 60.24767468 21.50505885 61.875 22.25 C78.54268412 30.58384206 93.0662927 42.85690612 106.50732422 55.58642578 C107.81292689 56.82284048 109.1265143 58.05081254 110.44140625 59.27734375 C136.49796055 84.30841648 155.92018727 120.97545462 164 156 C164.27070312 157.081604 164.27070312 157.081604 164.546875 158.18505859 C168.15786211 173.10782878 168.40139262 187.97963674 168.4375 203.25 C168.44358276 204.22356445 168.44966553 205.19712891 168.45593262 206.20019531 C168.51844316 221.5172108 168.2020735 237.42505124 163 252 C162.51597213 254.24461276 162.05863282 256.49510931 161.625 258.75 C160.55794318 263.83577329 159.23723992 268.44058369 157.18359375 273.203125 C155.59023308 276.9682941 154.17495634 280.79351599 152.75 284.625 C152.34430786 285.71143799 152.34430786 285.71143799 151.93041992 286.81982422 C151.28589708 288.546158 150.64279565 290.27302236 150 292 C149.34 292 148.68 292 148 292 C147.855625 292.94875 147.71125 293.8975 147.5625 294.875 C147 298 147 298 146 300 C145.34 300 144.68 300 144 300 C143.71125 301.0725 143.4225 302.145 143.125 303.25 C142.27179891 306.09400364 141.4363497 308.43508983 140 311 C139.34 311 138.68 311 138 311 C137.814375 311.78375 137.62875 312.5675 137.4375 313.375 C133.91019237 322.26994967 125.8061231 334.89431298 117 339 C116.64587656 340.32796291 116.31478446 341.66216607 116 343 C114.0625 345.25 114.0625 345.25 112 347 C111.34 347 110.68 347 110 347 C109.91621094 347.58265625 109.83242188 348.1653125 109.74609375 348.765625 C108.78273304 351.65066337 107.37020296 352.79700726 105.0625 354.75 C104.35222656 355.36359375 103.64195312 355.9771875 102.91015625 356.609375 C101 358 101 358 99 358 C98.79246094 358.55429687 98.58492188 359.10859375 98.37109375 359.6796875 C96.50375514 362.839799 93.88720267 364.86120737 91.0625 367.125 C90.52431641 367.56714844 89.98613281 368.00929688 89.43164062 368.46484375 C82.65065616 374 82.65065616 374 79 374 C78.67 374.99 78.34 375.98 78 377 C76.48803711 378.22338867 76.48803711 378.22338867 74.52734375 379.41796875 C73.80071533 379.86374268 73.07408691 380.3095166 72.32543945 380.76879883 C71.53741943 381.23697021 70.74939941 381.7051416 69.9375 382.1875 C69.12692139 382.67436279 68.31634277 383.16122559 67.48120117 383.6628418 C59.84487092 388.19223741 52.06411338 392.28975065 44 396 C42.88367188 396.52078125 41.76734375 397.0415625 40.6171875 397.578125 C22.97479869 405.21378303 3.07651171 409.78294232 -16 412 C-17.3008252 412.15553345 -17.3008252 412.15553345 -18.62792969 412.31420898 C-24.28256594 412.89435383 -29.72080419 412.98850592 -35.3984375 412.67578125 C-52.6715423 411.78929053 -64.38610077 413.32026717 -79.12695312 423.16455078 C-83.97760872 426.26339755 -89.08930707 428.88021325 -94.18527222 431.54711914 C-97.19213323 433.12596768 -100.18341965 434.73373458 -103.17578125 436.33984375 C-104.90755615 437.26772705 -104.90755615 437.26772705 -106.67431641 438.21435547 C-122.8293038 446.88838115 -138.84918172 455.79660634 -154.82714844 464.79174805 C-156.20251946 465.55654706 -157.59243104 466.29621552 -159 467 C-157.57938558 462.3546398 -155.67552838 458.09985703 -153.47265625 453.78515625 C-152.95520088 452.75859169 -152.95520088 452.75859169 -152.42729187 451.71128845 C-151.69020354 450.24947928 -150.95141346 448.78852714 -150.21105957 447.32836914 C-148.2735372 443.5060405 -146.34935853 439.67701729 -144.42578125 435.84765625 C-143.85318069 434.70836166 -143.85318069 434.70836166 -143.26901245 433.54605103 C-139.57807315 426.18732089 -136.00779443 418.77470868 -132.48852539 411.33227539 C-129.73712199 405.51436216 -126.90013952 399.74527113 -124 394 C-125.12365967 393.56107422 -125.12365967 393.56107422 -126.27001953 393.11328125 C-146.78472759 384.74741926 -164.96719135 371.05492103 -181 356 C-181.52609863 355.50790039 -182.05219727 355.01580078 -182.59423828 354.50878906 C-196.36540964 341.5210196 -207.29114939 326.90785007 -216.97900391 310.68652344 C-217.84589757 309.25455275 -218.75283522 307.84694559 -219.66796875 306.4453125 C-224.97398822 298.22311611 -228.41443046 289.06429033 -232 280 C-232.28407715 279.29456055 -232.5681543 278.58912109 -232.86083984 277.86230469 C-241.6713018 255.74287509 -245.43024417 231.47226974 -245.25 207.75 C-245.24723053 207.03077362 -245.24446106 206.31154724 -245.24160767 205.57052612 C-245.19077852 194.27754155 -244.68790038 183.17559611 -243 172 C-242.89284668 171.24235352 -242.78569336 170.48470703 -242.67529297 169.70410156 C-241.22434323 159.52844531 -239.14730571 149.80061742 -236 140 C-235.68687866 138.99924438 -235.68687866 138.99924438 -235.36743164 137.97827148 C-233.41333964 131.88665779 -230.98835698 126.05072591 -228.4375 120.1875 C-228.03853516 119.26001953 -227.63957031 118.33253906 -227.22851562 117.37695312 C-225.56961305 113.53572129 -223.90172923 109.72832711 -222 106 C-221.34 106 -220.68 106 -220 106 C-219.87753906 105.42765625 -219.75507813 104.8553125 -219.62890625 104.265625 C-218.97237132 101.90046809 -218.06276488 99.92793203 -216.9375 97.75 C-216.57527344 97.04359375 -216.21304688 96.3371875 -215.83984375 95.609375 C-215.42412109 94.81273437 -215.42412109 94.81273437 -215 94 C-214.34 94 -213.68 94 -213 94 C-212.7525 93.29875 -212.505 92.5975 -212.25 91.875 C-207.24984434 80.37464199 -197.0175106 68.55507416 -188 60 C-187.51402344 59.49339844 -187.02804688 58.98679688 -186.52734375 58.46484375 C-181.40941524 53.15332929 -175.7757552 48.57559828 -170 44 C-168.98679687 43.19304687 -167.97359375 42.38609375 -166.9296875 41.5546875 C-120.0042225 4.56569517 -58.97160236 -11.37115035 0 0 Z M-90 20 C-90.94182129 20.25539551 -91.88364258 20.51079102 -92.85400391 20.77392578 C-100.38280754 22.81943898 -107.71275459 25.21628825 -115 28 C-115 28.66 -115 29.32 -115 30 C-115.845625 30.25652344 -116.69125 30.51304688 -117.5625 30.77734375 C-121.22663673 32.08061056 -124.5880338 33.71977693 -128 35.5625 C-128.96643433 36.07997803 -128.96643433 36.07997803 -129.95239258 36.60791016 C-135.85326978 39.82029855 -141.47529994 43.40981781 -147.07421875 47.1171875 C-150 49 -150 49 -152.08203125 49.9453125 C-154.89343469 51.4912981 -156.7715425 53.69524724 -159 56 C-160.22927551 57.16952613 -161.46549152 58.33178277 -162.70703125 59.48828125 C-163.3719458 60.10775635 -164.03686035 60.72723145 -164.72192383 61.36547852 C-165.41181396 62.00799561 -166.1017041 62.6505127 -166.8125 63.3125 C-168.9364814 65.30365791 -171.05851225 67.29686893 -173.1796875 69.29101562 C-174.59517158 70.6199304 -176.0153956 71.94379719 -177.4375 73.265625 C-187.68163202 83.08291819 -195.61172554 94.970559 -203 107 C-203.56589844 107.9075 -204.13179687 108.815 -204.71484375 109.75 C-210.28259986 118.81708374 -214.63283043 128.0535991 -218.0625 138.125 C-218.40756592 139.13127441 -218.75263184 140.13754883 -219.1081543 141.17431641 C-221.87578899 149.37709087 -224.1706246 157.5399813 -226 166 C-226.39771606 167.83522217 -226.39771606 167.83522217 -226.8034668 169.70751953 C-229.15026857 181.31337285 -229.56001034 192.68379844 -229.5 204.5 C-229.49757294 205.4679953 -229.49514587 206.4359906 -229.49264526 207.43331909 C-229.4178924 222.8322502 -228.42878634 237.16097799 -224 252 C-223.51732666 253.65056396 -223.51732666 253.65056396 -223.02490234 255.33447266 C-214.04904256 285.39248276 -200.40194072 311.72927421 -179.0078125 334.78125 C-177.60044262 336.33647586 -176.25132061 337.94547512 -174.94921875 339.58984375 C-172.01530989 343.21754268 -168.58198821 346.02586434 -165 349 C-164.47470703 349.43763672 -163.94941406 349.87527344 -163.40820312 350.32617188 C-150.70768355 360.85517404 -137.73513657 369.7415873 -123.125 377.4375 C-121.68060547 378.20030273 -121.68060547 378.20030273 -120.20703125 378.97851562 C-114.57412437 381.88067028 -109.06573317 384.16284262 -103 386 C-105.11324083 392.04373111 -107.74792287 397.51237992 -110.8125 403.125 C-115.00364949 410.92574825 -118.70189781 418.78155837 -122 427 C-117.54319605 425.63016347 -113.54478373 423.86859089 -109.40625 421.7265625 C-108.4776416 421.24623062 -108.4776416 421.24623062 -107.53027344 420.75619507 C-106.20653037 420.07065874 -104.88371776 419.38332321 -103.56176758 418.69433594 C-101.46569539 417.60720791 -99.3617346 416.53674851 -97.25585938 415.46875 C-91.11052783 412.33168546 -85.11444748 409.21861631 -79.4375 405.2734375 C-63.87977231 394.73551146 -48.80117163 396.18538624 -30.74385071 396.84387207 C-21.24777655 397.15684455 -12.26403226 396.02889963 -3 394 C-2.05737305 393.80132324 -1.11474609 393.60264648 -0.14355469 393.39794922 C35.94272512 385.625251 68.55196657 368.8722417 95 343 C95.91910156 342.13117188 96.83820313 341.26234375 97.78515625 340.3671875 C108.98146366 329.56456179 117.98109804 317.28989358 126 304 C126.37366699 303.38962891 126.74733398 302.77925781 127.13232422 302.15039062 C145.53276997 271.86223685 153.2048064 238.17802688 153.3125 203.0625 C153.31635712 202.27839752 153.32021423 201.49429504 153.32418823 200.68643188 C153.45102718 148.34582695 130.19989434 101.37497912 93.7109375 64.69921875 C74.75177331 46.91244104 53.06551669 34.40398633 29 25 C28.35401855 24.74275146 27.70803711 24.48550293 27.04248047 24.22045898 C13.62298538 19.00214308 -0.68662145 15.46487105 -15 14 C-16.28003906 13.83113281 -17.56007813 13.66226563 -18.87890625 13.48828125 C-43.47778098 10.80873803 -66.2968898 13.35543356 -90 20 Z " fill="#E36961" transform="translate(301,59)"/>
<path d="M0 0 C5.88512854 2.50267685 9.99761765 7.60361162 14.4375 12.0625 C14.93076782 12.55664398 15.42403564 13.05078796 15.93225098 13.55990601 C50.25508748 48.08423962 68.32693132 92.64395352 68.2487793 141.29614258 C68.18418756 152.1068501 67.27130721 162.43515097 65 173 C64.83902832 173.77279297 64.67805664 174.54558594 64.51220703 175.34179688 C57.74546755 206.77690938 41.13159895 234.06116947 19 257 C18.27554688 257.77601563 17.55109375 258.55203125 16.8046875 259.3515625 C12.36166863 263.99132021 7.58862346 268.07727833 2.5625 272.0625 C1.94656982 272.55242432 1.33063965 273.04234863 0.69604492 273.54711914 C-3.74885114 277 -3.74885114 277 -6 277 C-0.942653 289.24199075 4.47108153 301.27204064 10.25 313.1875 C10.69632782 314.10805679 10.69632782 314.10805679 11.15167236 315.04721069 C14.79087921 322.56528411 14.79087921 322.56528411 18.56835938 330.01416016 C19.03564453 330.91312012 19.50292969 331.81208008 19.984375 332.73828125 C20.39913086 333.51856689 20.81388672 334.29885254 21.24121094 335.1027832 C21.49161133 335.72886475 21.74201172 336.35494629 22 337 C21.67 337.66 21.34 338.32 21 339 C20.48953125 338.67950684 19.9790625 338.35901367 19.453125 338.02880859 C8.05192073 330.88536789 -3.4260865 323.90373375 -15.09008789 317.1965332 C-20.00828339 314.36204177 -24.86913673 311.47797456 -29.6484375 308.4140625 C-30.54167725 307.84953369 -31.43491699 307.28500488 -32.35522461 306.70336914 C-34.02231051 305.64404378 -35.67787498 304.56625974 -37.31860352 303.46655273 C-42.08576388 300.46216047 -45.21167297 299.4448175 -50.80102539 300.47875977 C-51.52668701 300.65076904 -52.25234863 300.82277832 -53 301 C-53.6902124 301.14687256 -54.3804248 301.29374512 -55.09155273 301.44506836 C-57.15520641 301.90559777 -59.20105596 302.41568329 -61.25 302.9375 C-96.97448715 311.64037221 -130.19324723 308.38873931 -165 298 C-164 296 -164 296 -162.13671875 295.31738281 C-161.32847656 295.11467773 -160.52023437 294.91197266 -159.6875 294.703125 C-158.33458862 294.35350708 -158.33458862 294.35350708 -156.9543457 293.99682617 C-155.49194458 293.62714722 -155.49194458 293.62714722 -154 293.25 C-117.4172773 283.58569276 -82.027143 265.42111872 -55.77734375 237.65234375 C-54 236 -54 236 -52 236 C-51.73832031 235.40574219 -51.47664063 234.81148437 -51.20703125 234.19921875 C-49.92652038 231.86611966 -48.65621906 230.58729812 -46.6875 228.8125 C-14.54472218 197.36847822 5.82150156 149.13113335 11 105 C11.0920874 104.21641113 11.1841748 103.43282227 11.27905273 102.62548828 C14.6004415 70.7246384 12.9708928 35.02762995 0.8203125 5.09375 C0 3 0 3 0 0 Z " fill="#CD473C" transform="translate(474,187)"/>
<path d="M0 0 C1.44914214 0.00112914 2.89828656 0.00049332 4.34742737 -0.00177002 C8.27070241 -0.00291553 12.19348616 0.02056694 16.11664724 0.04852581 C20.22057179 0.07356686 24.32450816 0.07588359 28.42849731 0.08062744 C36.1951275 0.0930493 43.96153189 0.12586013 51.72806275 0.1660254 C60.57201621 0.21076776 69.41598056 0.23273633 78.26001906 0.25280714 C96.44837629 0.29459353 114.63652349 0.36493014 132.82470703 0.45410156 C131.86787029 1.57210661 130.91079244 2.68990529 129.95361328 3.80761719 C129.4206665 4.43011353 128.88771973 5.05260986 128.33862305 5.69396973 C122.13820636 12.90279155 115.62592847 19.83155072 109.13061523 26.77319336 C101.37777858 35.0615018 93.72375645 43.43580634 86.14501953 51.88378906 C83.51390847 54.79838683 80.85812402 57.68943934 78.19970703 60.57910156 C74.5981149 64.49655789 71.04682365 68.45051956 67.55908203 72.46972656 C63.26790751 77.37944877 58.86668595 82.19284974 54.49658203 87.03222656 C51.12085681 90.77537766 47.75333268 94.52206629 44.44970703 98.32910156 C41.97380252 101.177538 39.43811211 103.96278173 36.87255859 106.73071289 C31.87356764 112.12684399 27.11541339 117.63701305 22.50439453 123.37207031 C20.82470703 125.45410156 20.82470703 125.45410156 19.82470703 126.45410156 C20.71118423 126.46218842 21.59766144 126.47027527 22.51100159 126.47860718 C30.88242997 126.55668417 39.2537004 126.64401419 47.62492466 126.74162865 C51.92822128 126.79148471 56.23149463 126.83781536 60.53491211 126.87597656 C64.69121931 126.91296484 68.84732654 126.95936083 73.00346184 127.01216507 C74.58576879 127.03063729 76.16811848 127.04577147 77.75049019 127.05744553 C79.97408466 127.07443155 82.19722828 127.10349454 84.4206543 127.13525391 C86.31594627 127.15523941 86.31594627 127.15523941 88.24952698 127.17562866 C93.42721724 127.57892204 98.5923003 128.33811061 102.26220703 132.26660156 C105.63426112 136.60209968 105.66638965 141.01087732 105.41455078 146.34863281 C104.54344244 150.93493169 102.62723993 153.77335711 98.82470703 156.45410156 C94.98792885 158.28452717 91.95338405 158.70194343 87.71867371 158.6946106 C86.49174805 158.69735992 85.26482239 158.70010925 84.00071716 158.70294189 C82.64932152 158.69586461 81.29792688 158.688595 79.9465332 158.68115234 C78.51724251 158.68058793 77.08795124 158.68090538 75.65866089 158.68203735 C71.7850626 158.6826107 67.91158841 158.67085938 64.03801894 158.65688944 C59.98745463 158.64437903 55.93688741 158.64321133 51.88630676 158.64083862 C44.21888895 158.63462477 36.55152823 158.61821523 28.88413554 158.59813964 C20.15384306 158.5757777 11.42354784 158.56478647 2.69323385 158.55474877 C-15.26297412 158.53384892 -33.21912895 158.49867477 -51.17529297 158.45410156 C-49.39109383 154.6480797 -47.12211254 152.03291614 -44.23779297 148.95410156 C-43.24421049 147.88647967 -42.25072368 146.81876875 -41.25732422 145.75097656 C-40.74766113 145.20634766 -40.23799805 144.66171875 -39.71289062 144.10058594 C-37.26813125 141.48269816 -34.84590212 138.84430628 -32.42529297 136.20410156 C-31.73028687 135.44709961 -31.73028687 135.44709961 -31.02124023 134.67480469 C-27.97594647 131.35048186 -24.99594211 127.97695536 -22.04248047 124.57128906 C-19.19871287 121.34676597 -16.28156972 118.18997738 -13.37158203 115.02539062 C-7.17500273 108.28443098 -1.05427084 101.48104956 4.95361328 94.57128906 C7.16953662 92.0639186 9.43511611 89.60508567 11.69970703 87.14160156 C14.98902942 83.54018986 18.14488339 79.88102881 21.19970703 76.07910156 C25.58931284 70.63879223 30.291619 65.54408373 35.05517578 60.43457031 C38.39880848 56.84756134 41.62125066 53.16634219 44.82470703 49.45410156 C45.90501591 48.21545363 46.98579312 46.97721408 48.06689453 45.73925781 C49.25709917 44.37345994 50.44720226 43.00757358 51.63720703 41.64160156 C52.2133374 40.98240723 52.78946777 40.32321289 53.38305664 39.64404297 C53.92712158 39.01804199 54.47118652 38.39204102 55.03173828 37.74707031 C55.52134033 37.18528076 56.01094238 36.62349121 56.51538086 36.04467773 C58.01616014 34.27584213 58.01616014 34.27584213 59.82470703 31.45410156 C58.45407608 31.44863312 58.45407608 31.44863312 57.05575562 31.4430542 C48.43374733 31.40514761 39.81211627 31.34826449 31.19037437 31.27019882 C26.75808634 31.23073237 22.32599673 31.1985399 17.89355469 31.18310547 C13.61391991 31.16793325 9.33483066 31.13347812 5.055439 31.08579254 C3.42486952 31.07098449 1.79422216 31.06306087 0.16358566 31.06221771 C-2.12525464 31.05984444 -4.4125917 31.03273911 -6.70117188 31 C-8.00245026 30.99111755 -9.30372864 30.98223511 -10.6444397 30.9730835 C-15.95973988 30.1918149 -19.00652364 27.74589925 -22.55029297 23.82910156 C-24.7543719 19.25139917 -24.97245687 15.44857745 -24.17529297 10.45410156 C-18.90573662 -0.49036161 -10.87438805 -0.118449 0 0 Z " fill="#9EEFF2" transform="translate(222.17529296875,197.5458984375)"/>
<path d="M0 0 C0.66 0.33 1.32 0.66 2 1 C1.17757812 1.75023438 0.35515625 2.50046875 -0.4921875 3.2734375 C-1.6203081 4.30672812 -2.74787225 5.34062645 -3.875 6.375 C-4.46200684 6.91358643 -5.04901367 7.45217285 -5.65380859 8.00708008 C-10.24652786 12.24646532 -14.647159 16.62752274 -18.9765625 21.13671875 C-21 23 -21 23 -24 24 C-24 22 -24 22 -21.9375 19.8125 C-21.47472656 19.37035156 -21.01195313 18.92820312 -20.53515625 18.47265625 C-19.5013088 17.48089929 -18.48828774 16.46702178 -17.49609375 15.43359375 C-13.06222216 10.82877771 -8.23757103 6.82311568 -3.2578125 2.8203125 C-1.15830005 1.19385593 -1.15830005 1.19385593 0 0 Z " fill="#B4847F" transform="translate(132,102)"/>
<path d="M0 0 C0.99 0.33 1.98 0.66 3 1 C2.4225 1.37769531 1.845 1.75539062 1.25 2.14453125 C-3.41727823 5.56281955 -3.41727823 5.56281955 -5.56640625 10.73828125 C-5.56024214 15.29355529 -4.9554767 19.55181438 -4 24 C-7.34335968 20.80200378 -8.17907596 18.88472966 -8.3125 14.25 C-8.26337112 9.38624065 -7.27587432 6.73085686 -4 3 C-1.9375 1.0625 -1.9375 1.0625 0 0 Z " fill="#D8F0F0" transform="translate(206,199)"/>
<path d="M0 0 C0.66 0.33 1.32 0.66 2 1 C-3.23514227 7.24259233 -8.67672382 12.85314729 -15 18 C-13.71042686 15.18947006 -12.32935483 13.05202908 -10.21484375 10.80078125 C-9.68439453 10.23166016 -9.15394531 9.66253906 -8.60742188 9.07617188 C-8.05634766 8.49416016 -7.50527344 7.91214844 -6.9375 7.3125 C-6.10508789 6.42208008 -6.10508789 6.42208008 -5.25585938 5.51367188 C-1.47614397 1.47614397 -1.47614397 1.47614397 0 0 Z " fill="#D4F0EE" transform="translate(196,327)"/>
<path d="M0 0 C0 4.44071752 -2.89285572 6.46249234 -5.8125 9.5 C-6.63331055 10.37205078 -6.63331055 10.37205078 -7.47070312 11.26171875 C-9.94266092 13.88049585 -12.44668183 16.46040172 -15 19 C-15.66 18.67 -16.32 18.34 -17 18 C-14.3544182 15.18726331 -11.70849239 12.37485045 -9.0625 9.5625 C-8.30775391 8.76005859 -7.55300781 7.95761719 -6.77539062 7.13085938 C-6.05673828 6.36708984 -5.33808594 5.60332031 -4.59765625 4.81640625 C-3.93258057 4.10943604 -3.26750488 3.40246582 -2.58227539 2.67407227 C-1.73112195 1.77353853 -0.87619153 0.87619153 0 0 Z " fill="#D0ECEC" transform="translate(215,306)"/>
<path d="M0 0 C0 4.15560231 -2.2820452 5.84099329 -5 8.6875 C-5.47695312 9.19861328 -5.95390625 9.70972656 -6.4453125 10.23632812 C-7.62359915 11.49709484 -8.81095253 12.74937686 -10 14 C-10.66 13.67 -11.32 13.34 -12 13 C-8.04 8.71 -4.08 4.42 0 0 Z " fill="#B6E8EA" transform="translate(260,255)"/>
<path d="M0 0 C0.66 0.66 1.32 1.32 2 2 C-1.63 5.63 -5.26 9.26 -9 13 C-9.66 12.67 -10.32 12.34 -11 12 C-10.54109375 11.55269531 -10.0821875 11.10539063 -9.609375 10.64453125 C-6.16447701 7.25029352 -2.92744915 3.86423288 0 0 Z " fill="#32394B" transform="translate(326,229)"/>
<path d="M0 0 C1.98 0 3.96 0 6 0 C6 0.99 6 1.98 6 3 C3.69 2.67 1.38 2.34 -1 2 C-0.67 1.34 -0.34 0.68 0 0 Z " fill="#DD7973" transform="translate(310,483)"/>
</svg>
